<svg viewBox="0 0 100 100" xmlns="http://www.w3.org/2000/svg">
  <!-- Background circle -->
  <circle cx="50" cy="50" r="45" fill="#ff9800" />
  
  <!-- Sun rays -->
  <path d="M50 15 L50 5 M35 20 L28 12 M20 35 L12 28 M15 50 L5 50 M20 65 L12 72 M35 80 L28 88 M50 85 L50 95 M65 80 L72 88 M80 65 L88 72 M85 50 L95 50 M80 35 L88 28 M65 20 L72 12" 
        stroke="#ffd700" 
        stroke-width="3" />
  
  <!-- Lyre -->
  <path d="M35 40 Q50 35 65 40 L65 70 Q50 75 35 70 Z" 
        fill="none" 
        stroke="#fff" 
        stroke-width="3" />
  <path d="M40 45 L40 65 M50 43 L50 67 M60 45 L60 65" 
        stroke="#fff" 
        stroke-width="2" />
</svg>
